<?xml version="1.0" encoding="utf-8"?>
<!-- Generator: Adobe Illustrator 24.2.1, SVG Export Plug-In . SVG Version: 6.00 Build 0)  -->
<svg version="1.1" id="Layer_1" xmlns="http://www.w3.org/2000/svg" xmlns:xlink="http://www.w3.org/1999/xlink" x="0px" y="0px"
	 viewBox="0 0 95 95" style="enable-background:new 0 0 95 95;" xml:space="preserve">
<style type="text/css">
	.st0{fill:#FFFFFF;}
	.st1{fill:#FFFFFF;stroke:#FFFFFF;stroke-width:4;stroke-linecap:round;stroke-miterlimit:10;}
</style>
<g>
	<g>
		<g>
			<path class="st0" d="M41,78.9c8.4,1.3,17-0.2,23.4-6.1c5.4-4.9,8.8-12.1,9.8-19.3c2-13.8-3.5-28.4-14.7-37c-3-2.3-6.2-3.9-10-4.1
				c-3.6-0.1-7.3,0.7-10.5,2.1c-7.2,3.2-11.3,11.8-13.5,18.9c-1.2,4.1-1.9,8.4-2.1,12.7c-0.2,3.8-0.3,7.9,0.6,11.7
				c1.4,6,5.6,13.8,12.6,14c4,0.1,8.3-1.6,11.3-4.2c2.7-2.2,5.3-5.6,5.9-9.1c0.6-4.1-1.7-8-4.7-10.5c-1-0.8-3.2-1.7-3.5-3.2
				c-0.3-1.3,0.6-2.6,1.6-3.4c1.4-1.2,3.2-1.8,4.9-2.4c1.3-0.4,2.1-1.7,1.7-3.1c-0.3-1.2-1.8-2.2-3.1-1.7c-3.4,1.2-7.1,2.6-9,6
				c-2,3.5-1.3,7.5,1.9,9.9c2.3,1.8,5.3,3.6,5.4,6.8c0.1,2.8-2.7,5.7-4.7,7.3c-1.2,0.9-2.4,1.5-3.8,1.9c-1.7,0.5-3.4,1-5.2,0.5
				c-0.2-0.1-0.7-0.3-1.2-0.7c-0.2-0.2-0.8-0.7-1.1-1.1c-0.9-1-1.6-2.1-2.2-3.3c-0.7-1.2-1.2-2.5-1.6-3.9c-0.2-0.6-0.3-1.2-0.5-1.8
				c-0.2-0.7-0.2-0.9-0.2-1.8c-0.3-3.9-0.2-7.7,0.2-11.6c0.8-7,3.3-14.8,8.1-20.1c2-2.3,4.3-3.6,7.3-4.4c2.7-0.7,5.7-1,8.3-0.1
				c2.8,1,5.4,3.2,7.5,5.3c2.1,2.1,3.9,4.5,5.4,7.1c2.9,5.1,4.5,10.9,4.5,16.8c0.1,6.2-1.5,12.3-4.9,17.4c-3.9,5.9-9.9,9.4-17,9.6
				c-1.8,0.1-3.7,0-5.5-0.3c-1.3-0.2-2.7,0.3-3.1,1.7C38.9,77,39.7,78.7,41,78.9L41,78.9z"/>
		</g>
	</g>
	<g>
		<g>
			<path class="st0" d="M11.1,60.7c-0.5,9.9,5.2,18.9,13.7,23.7c2.8,1.6,5.3-2.7,2.5-4.3c-3.6-2-6.7-4.8-8.7-8.4
				c-1.9-3.4-2.7-7.1-2.5-10.9c0.1-1.3-1.2-2.5-2.5-2.5C12.1,58.2,11.1,59.3,11.1,60.7L11.1,60.7z"/>
		</g>
	</g>
	<g>
		<g>
			<path class="st0" d="M0.6,66.1C0.2,76,5.8,85,14.4,89.8c2.8,1.6,5.3-2.7,2.5-4.3c-3.6-2-6.7-4.8-8.7-8.4
				C6.3,73.6,5.5,70,5.6,66.1c0.1-1.3-1.2-2.5-2.5-2.5C1.7,63.6,0.7,64.7,0.6,66.1L0.6,66.1z"/>
		</g>
	</g>
	<g>
		<g>
			<path class="st0" d="M83.9,34.3c0.5-9.9-5.1-18.9-13.7-23.7c-2.8-1.6-5.3,2.7-2.5,4.3c3.6,2,6.7,4.9,8.7,8.5
				c1.9,3.4,2.7,7.1,2.5,10.9c-0.1,1.3,1.2,2.5,2.5,2.5C82.8,36.8,83.9,35.7,83.9,34.3L83.9,34.3z"/>
		</g>
	</g>
	<g>
		<g>
			<path class="st0" d="M94.4,28.9C94.9,19,89.2,10,80.7,5.2c-2.8-1.6-5.3,2.7-2.5,4.3c3.6,2,6.7,4.9,8.7,8.5
				c1.9,3.4,2.7,7.1,2.5,10.9c-0.1,1.3,1.2,2.5,2.5,2.5C93.3,31.4,94.3,30.3,94.4,28.9L94.4,28.9z"/>
		</g>
	</g>
</g>
</svg>
