<?xml version="1.0" encoding="utf-8"?>
<!-- Generator: Adobe Illustrator 24.2.1, SVG Export Plug-In . SVG Version: 6.00 Build 0)  -->
<svg version="1.1" id="Layer_1" xmlns="http://www.w3.org/2000/svg" xmlns:xlink="http://www.w3.org/1999/xlink" x="0px" y="0px"
	 viewBox="0 0 95 95" style="enable-background:new 0 0 95 95;" xml:space="preserve">
<style type="text/css">
	.st0{fill:#FFFFFF;}
	.st1{fill:#FFFFFF;stroke:#FFFFFF;stroke-width:4;stroke-linecap:round;stroke-miterlimit:10;}
</style>
<g>
	<g>
		<g>
			<path class="st0" d="M53.8,62c3.7,0.5,7.3,0,10.2-2.5c2.5-2.1,4.1-5.4,4.6-8.6c1-6.2-1.5-12.7-6.7-16.5c-2.6-1.9-5.7-2.1-8.7-0.8
				c-3.2,1.3-5,4.7-6.1,7.9c-1.1,3.3-1.6,7.4-0.9,10.9c0.5,2.6,2.3,6.1,5.2,6.6c3.6,0.6,7.8-2.3,8.5-5.9c0.4-1.9-0.6-3.8-2.1-5.1
				c-0.4-0.4-1.4-0.7-1.3-1.4c0.1-0.9,1.6-1.3,2.3-1.5c2-0.7,1.1-3.8-0.9-3.1c-2.5,0.9-5.4,2.7-4.6,5.8c0.6,2.2,4.7,3,2.9,5.7
				c-0.7,1.1-1.7,1.8-3,2.1c-1.4,0.4-2.1-0.1-2.8-1.3c-1.4-2.3-1.4-4.9-1.1-7.5c0.4-4.5,2.9-11.9,8.8-10.7c2.2,0.4,4.2,2.9,5.3,4.7
				c1.2,2,2,4.4,2.1,6.8c0.1,2.8-0.6,5.7-2.3,8c-2,2.7-5.2,3.8-8.6,3.3c-0.9-0.1-1.7,0.2-2,1.1C52.4,60.7,52.9,61.9,53.8,62L53.8,62
				z"/>
		</g>
	</g>
	<line class="st1" x1="68.1" y1="47.5" x2="88.7" y2="47.5"/>
	<g>
		<g>
			<path class="st0" d="M32,87.9c3.7,0.5,7.3,0,10.2-2.5c2.5-2.1,4.1-5.4,4.6-8.6c1-6.2-1.5-12.7-6.7-16.5c-2.6-1.9-5.7-2.1-8.7-0.8
				c-3.2,1.3-5,4.7-6.1,7.9c-1.1,3.3-1.6,7.4-0.9,10.9c0.5,2.6,2.3,6.1,5.2,6.6c3.6,0.6,7.8-2.3,8.5-5.9c0.4-1.9-0.6-3.8-2.1-5.1
				c-0.4-0.4-1.4-0.7-1.3-1.4c0.1-0.9,1.6-1.3,2.3-1.5c2-0.7,1.1-3.8-0.9-3.1c-2.5,0.9-5.4,2.7-4.6,5.8c0.6,2.2,4.7,3,2.9,5.7
				c-0.7,1.1-1.7,1.8-3,2.1c-1.4,0.4-2.1-0.1-2.8-1.3c-1.4-2.3-1.4-4.9-1.1-7.5c0.4-4.5,2.9-11.9,8.8-10.7c2.2,0.4,4.2,2.9,5.3,4.7
				c1.2,2,2,4.4,2.1,6.8c0.1,2.8-0.6,5.7-2.3,8c-2,2.7-5.2,3.8-8.6,3.3c-0.9-0.1-1.7,0.2-2,1.1C30.7,86.7,31.1,87.8,32,87.9L32,87.9
				z"/>
		</g>
	</g>
	<line class="st1" x1="6.3" y1="47.5" x2="47" y2="47.5"/>
	<line class="st1" x1="32" y1="21.6" x2="88.7" y2="21.6"/>
	<line class="st1" x1="6.3" y1="21.6" x2="10.1" y2="21.6"/>
	<g>
		<g>
			<path class="st0" d="M17.3,36.1c3.7,0.5,7.3,0,10.2-2.5c2.5-2.1,4.1-5.4,4.6-8.6c1-6.2-1.5-12.7-6.7-16.5
				c-2.6-1.9-5.7-2.1-8.7-0.8c-3.2,1.3-5,4.7-6.1,7.9C9.4,18.9,8.9,23,9.6,26.5c0.5,2.6,2.3,6.1,5.2,6.6c3.6,0.6,7.8-2.3,8.5-5.9
				c0.4-1.9-0.6-3.8-2.1-5.1c-0.4-0.4-1.4-0.7-1.3-1.4c0.1-0.9,1.6-1.3,2.3-1.5c2-0.7,1.1-3.8-0.9-3.1c-2.5,0.9-5.4,2.7-4.6,5.8
				c0.6,2.2,4.7,3,2.9,5.7c-0.7,1.1-1.7,1.8-3,2.1c-1.4,0.4-2.1-0.1-2.8-1.3c-1.4-2.3-1.4-4.9-1.1-7.5c0.4-4.5,2.9-11.9,8.8-10.7
				c2.2,0.4,4.2,2.9,5.3,4.7c1.2,2,2,4.4,2.1,6.8c0.1,2.8-0.6,5.7-2.3,8c-2,2.7-5.2,3.8-8.6,3.3c-0.9-0.1-1.7,0.2-2,1.1
				C15.9,34.8,16.4,36,17.3,36.1L17.3,36.1z"/>
		</g>
	</g>
	<line class="st1" x1="46.2" y1="73.4" x2="88.7" y2="73.4"/>
	<line class="st1" x1="6.3" y1="73.4" x2="24.5" y2="73.4"/>
</g>
</svg>
