<?xml version="1.0" encoding="utf-8"?>
<!-- Generator: Adobe Illustrator 24.2.1, SVG Export Plug-In . SVG Version: 6.00 Build 0)  -->
<svg version="1.1" id="Layer_1" xmlns="http://www.w3.org/2000/svg" xmlns:xlink="http://www.w3.org/1999/xlink" x="0px" y="0px"
	 viewBox="0 0 95 95" style="enable-background:new 0 0 95 95;" xml:space="preserve">
<style type="text/css">
	.st0{fill:#FFFFFF;}
	.st1{fill:#FFFFFF;stroke:#FFFFFF;stroke-width:4;stroke-linecap:round;stroke-miterlimit:10;}
</style>
<g>
	<g>
		<g>
			<path class="st0" d="M17.1,12.1c-4,4.4-7.2,9.5-9.3,15.1c-1.9,5.1-3.5,11.9,1.1,16.1c2.2,2,5,2.8,7.8,3.7
				c2.8,0.9,5.6,1.8,8.2,3.2c4.2,2.3,8,6.5,6.9,11.7c-0.7,3.2-2.5,6-4.3,8.6c-2.1,3.1-4.3,6.2-6.5,9.3c-0.8,1.1-0.2,2.8,0.9,3.4
				c1.2,0.7,2.6,0.2,3.4-0.9c2-2.8,3.9-5.6,5.9-8.4c1.7-2.5,3.3-4.9,4.4-7.7c2.3-5.6,1.4-11.5-2.7-16c-3.9-4.4-9.6-6.4-15-8.1
				c-2.2-0.7-5.3-1.3-6.5-3.5c-1.1-2-0.6-4.5,0-6.6c1.7-6.1,5-11.8,9.2-16.5C22.8,13.2,19.3,9.7,17.1,12.1L17.1,12.1z"/>
		</g>
	</g>
	<g>
		<g>
			<path class="st0" d="M43.2,12.1c-4,4.4-7.2,9.5-9.3,15.1c-1.9,5.1-3.5,11.9,1.1,16.1c2.2,2,5,2.8,7.8,3.7
				c2.8,0.9,5.6,1.8,8.2,3.2c4.2,2.3,8,6.5,6.9,11.7c-0.7,3.2-2.5,6-4.3,8.6c-2.1,3.1-4.3,6.2-6.5,9.3c-0.8,1.1-0.2,2.8,0.9,3.4
				c1.2,0.7,2.6,0.2,3.4-0.9c2-2.8,3.9-5.6,5.9-8.4c1.7-2.5,3.3-4.9,4.4-7.7c2.3-5.6,1.4-11.5-2.7-16c-3.9-4.4-9.6-6.4-15-8.1
				c-2.2-0.7-5.3-1.3-6.5-3.5c-1.1-2-0.6-4.5,0-6.6c1.7-6.1,5-11.8,9.2-16.5C48.9,13.2,45.4,9.7,43.2,12.1L43.2,12.1z"/>
		</g>
	</g>
	<g>
		<g>
			<path class="st0" d="M69.3,12.1c-4,4.4-7.2,9.5-9.3,15.1C58,32.3,56.5,39.1,61,43.3c2.2,2,5,2.8,7.8,3.7c2.8,0.9,5.6,1.8,8.2,3.2
				c4.2,2.3,8,6.5,6.9,11.7c-0.7,3.2-2.5,6-4.3,8.6c-2.1,3.1-4.3,6.2-6.5,9.3c-0.8,1.1-0.2,2.8,0.9,3.4c1.2,0.7,2.6,0.2,3.4-0.9
				c2-2.8,3.9-5.6,5.9-8.4c1.7-2.5,3.3-4.9,4.4-7.7c2.3-5.6,1.4-11.5-2.7-16c-3.9-4.4-9.6-6.4-15-8.1c-2.2-0.7-5.3-1.3-6.5-3.5
				c-1.1-2-0.6-4.5,0-6.6c1.7-6.1,5-11.8,9.2-16.5C75,13.2,71.5,9.7,69.3,12.1L69.3,12.1z"/>
		</g>
	</g>
</g>
</svg>
